<svg xmlns="http://www.w3.org/2000/svg" xmlns:xlink="http://www.w3.org/1999/xlink" width="100" height="100" viewBox="0 0 100 100"><defs><clipPath id="b"><rect width="100" height="100"/></clipPath></defs><g id="a" clip-path="url(#b)"><rect width="100" height="100" fill="#fff"/><path d="M3.893,91.462A3.893,3.893,0,0,1,0,87.569V46.584a3.893,3.893,0,0,1,3.893-3.893h12.93l-4.2-2.236a17.54,17.54,0,1,1,26.018-21.63l1.118,2.444,1.118-2.444A17.541,17.541,0,1,1,66.89,40.455l-4.083,2.373,12.808-.137a3.9,3.9,0,0,1,3.893,3.894v7.04L99.243,39.366a.474.474,0,0,1,.278-.091.5.5,0,0,1,.222.054.475.475,0,0,1,.257.425v44.4a.478.478,0,0,1-.478.479.472.472,0,0,1-.278-.091L79.508,70.283V87.568a3.893,3.893,0,0,1-3.894,3.894ZM.956,87.568A2.937,2.937,0,0,0,3.893,90.5H75.615a2.938,2.938,0,0,0,2.938-2.937V81.216H.956ZM79.508,54.8V69.1L99.044,83.218V40.689ZM3.893,43.648A2.937,2.937,0,0,0,.956,46.586V80.26h77.6V46.585a2.937,2.937,0,0,0-2.937-2.937Zm55.1-34.016a16.6,16.6,0,1,0,14.3,14.3A16.621,16.621,0,0,0,58.995,9.632ZM38.636,33.361a17.644,17.644,0,0,1-5.9,7.094L28.53,42.691H50.979l-4.207-2.236a17.644,17.644,0,0,1-5.9-7.094l-1.118-2.444ZM24.842,9.632a16.6,16.6,0,1,0,14.3,14.3A16.621,16.621,0,0,0,24.842,9.632Z"/><path d="M22.677,36.817A10.725,10.725,0,1,1,33.4,26.093,10.736,10.736,0,0,1,22.677,36.817Zm0-20.492a9.768,9.768,0,1,0,9.769,9.768A9.779,9.779,0,0,0,22.677,16.325Z"/><path d="M56.831,36.817A10.724,10.724,0,1,1,67.554,26.093,10.736,10.736,0,0,1,56.831,36.817Zm0-20.492A9.767,9.767,0,1,0,66.6,26.093,9.78,9.78,0,0,0,56.831,16.325Z"/></g></svg>