<svg xmlns="http://www.w3.org/2000/svg" xmlns:xlink="http://www.w3.org/1999/xlink" width="100" height="100" viewBox="0 0 100 100"><defs><clipPath id="b"><rect width="100" height="100"/></clipPath></defs><g id="a" clip-path="url(#b)"><rect width="100" height="100" fill="#fff"/><g transform="translate(-940.191 -1.191)"><path d="M949.054,101.191a.407.407,0,0,1-.407-.407V1.6a.408.408,0,0,1,.407-.408h82.275a.407.407,0,0,1,.406.408v99.185a.406.406,0,0,1-.406.407Zm18.145-.814h63.736L1031,2.006h-12.86V30.054a.4.4,0,0,1-.2.344l-.212-.011a.415.415,0,0,1-.352-.2l-7.962-12.977-8.03,12.97a.417.417,0,0,1-.357.21.41.41,0,0,1-.408-.409V2.006H967.2Zm-17.738,0h16.924V2.007H949.461Zm51.932-71.829,7.57-12.327,0,.006c.006,0,.038-.03.074-.055a.479.479,0,0,1,.275-.088.484.484,0,0,1,.4.206l7.558,12.2V2.007h-15.813Z"/></g></g></svg>