<svg xmlns="http://www.w3.org/2000/svg" xmlns:xlink="http://www.w3.org/1999/xlink" width="100" height="100" viewBox="0 0 100 100"><defs><clipPath id="b"><rect width="100" height="100"/></clipPath></defs><g id="a" clip-path="url(#b)"><rect width="100" height="100" fill="#fff"/><g transform="translate(-1702.192 -1.191)"><path d="M1702.691,101.191a.5.5,0,0,1-.5-.5v-.5h4.3V39.931h35.435v60.26h20.521V14.1h35.435v86.087h4.3v.5a.5.5,0,0,1-.5.5Zm68.371-11.76h11.76v10.761h14.066V15.1h-33.436v9.763h21.522v1h-21.522v9.763h21.522v1h-21.522v9.763h21.522v1h-21.522v9.763h21.522v1h-21.522V67.91h21.522v1h-21.522v9.763h21.522v1h-21.522v20.523h7.61Zm1,10.761h9.761V90.43h-9.761ZM1715.1,91.584h18.216v8.608h7.61V40.93h-33.436v59.262h7.61Zm1,8.608h16.218v-7.61H1716.1Z"/><path d="M1723.713,32.321V1.192h59.109v5.3h-1V2.19h-57.109V32.321Z"/><rect width="1" height="35.433" transform="translate(1715.105 48.54)"/><rect width="1" height="35.433" transform="translate(1723.713 48.54)"/><rect width="0.999" height="35.433" transform="translate(1732.322 48.54)"/><rect width="1" height="3.151" transform="translate(1734.474 11.953)"/><rect width="1" height="3.151" transform="translate(1734.474 24.866)"/><rect width="1" height="3.151" transform="translate(1743.083 24.866)"/><rect width="1" height="3.151" transform="translate(1743.083 11.953)"/><rect width="0.999" height="3.151" transform="translate(1751.692 11.953)"/><rect width="0.999" height="3.151" transform="translate(1751.692 24.866)"/><rect width="0.999" height="3.151" transform="translate(1751.692 37.779)"/><rect width="0.999" height="3.151" transform="translate(1751.692 50.692)"/><rect width="0.999" height="3.151" transform="translate(1751.692 63.605)"/><rect width="0.999" height="3.151" transform="translate(1751.692 76.518)"/></g></g></svg>