<svg xmlns="http://www.w3.org/2000/svg" xmlns:xlink="http://www.w3.org/1999/xlink" width="100" height="100" viewBox="0 0 100 100"><defs><clipPath id="b"><rect width="100" height="100"/></clipPath></defs><g id="a" clip-path="url(#b)"><rect width="100" height="100" fill="#fff"/><g transform="translate(-1060.192 -1.191)"><path d="M1092.557,82.4h-31.649V1.615a.487.487,0,0,1,.513-.424h37.584a.384.384,0,0,1,.274.129.229.229,0,0,1,.067.183l-.007,34.923a.423.423,0,1,1-.846,0V2.039h-36.739v79.6h30.9a.458.458,0,0,1,.423.424.355.355,0,0,1-.359.343Z"/><path d="M1104.912,82.489a.424.424,0,0,1,0-.848h39.911c7.612,0,13.806-6.755,13.806-15.058,0-13.977-10.449-25.348-23.292-25.348h-8.053a.368.368,0,0,1-.34-.169.333.333,0,0,1-.06-.362,26.97,26.97,0,0,0,1.5-8.931c0-13.978-10.449-25.349-23.292-25.349a.459.459,0,0,1-.423-.424.459.459,0,0,1,.423-.424c13.311,0,24.138,11.752,24.138,26.2a27.061,27.061,0,0,1-1.039,7.443l-.334,1.171h7.393c13.359,0,24.227,11.752,24.227,26.2,0,8.77-6.573,15.906-14.652,15.906Z"/><path d="M1099.005,101.191a.518.518,0,0,1-.334-.087l-10.827-10.829a.424.424,0,0,1,.288-.714.413.413,0,0,1,.29.133l10.161,10.159V64.525a.307.307,0,0,1,.333-.334.458.458,0,0,1,.423.424V99.943L1109.5,89.784a.62.62,0,0,1,.423-.181.341.341,0,0,1,.249.093.381.381,0,0,1,0,.579L1099.34,101.1A.514.514,0,0,1,1099.005,101.191Z"/><path d="M1083.971,40.787a.424.424,0,1,1,0-.847H1113.5a.424.424,0,1,1,0,.847Z"/><path d="M1083.971,50.452a.424.424,0,0,1,0-.848H1113.5a.424.424,0,1,1,0,.848Z"/><path d="M1083.971,60.116a.424.424,0,1,1,0-.847H1113.5a.424.424,0,1,1,0,.847Z"/></g><text transform="translate(0.5 -10.66)" fill="#fff" font-size="12" font-family="GillSansMT, Gill Sans MT"><tspan x="0" y="0">Saas</tspan><tspan font-family="GillSansMT"><tspan x="0" y="14.4"></tspan></tspan></text></g></svg>