<svg xmlns="http://www.w3.org/2000/svg" xmlns:xlink="http://www.w3.org/1999/xlink" width="100" height="100" viewBox="0 0 100 100"><defs><clipPath id="b"><rect width="100" height="100"/></clipPath></defs><g id="a" clip-path="url(#b)"><rect width="100" height="100" fill="#fff"/><g transform="translate(-1318.192 -1.191)"><path d="M1347.178,101.191a.432.432,0,0,1-.412-.287l-.04-.1L1325.787,57.03a.417.417,0,0,1-.021-.326.438.438,0,0,1,.228-.256l15.633-6.305V26.952a.445.445,0,0,1,.44-.44h8.584V1.631a.446.446,0,0,1,.441-.44h11.842a.446.446,0,0,1,.439.44V26.512h9.634V1.631a.447.447,0,0,1,.441-.44h11.842a.447.447,0,0,1,.44.44V26.512h8.584a.445.445,0,0,1,.44.44V50.143l15.621,6.3a.432.432,0,0,1,.235.566l-20.2,43.927a.449.449,0,0,1-.4.253Zm21.453-.879h21.095l19.893-43.226-40.988-16.563Zm-41.869-43.235,20.693,43.235h20.3V40.523Zm41.429-17.639a.5.5,0,0,1,.213.048l25.47,10.3V34.4h-51.367V49.784l25.424-10.277A.591.591,0,0,1,1368.191,39.438Zm-25.684-5.917h51.367V27.392h-51.367Zm31.38-7.009h10.963V18.776h-10.963Zm-22.356,0h10.963V18.776h-10.963Zm22.356-8.63h10.963v-7.2h-10.963Zm-22.356,0h10.963v-7.2h-10.963Zm22.356-8.075h10.963V2.071h-10.963Zm-22.356,0h10.963V2.071h-10.963Z"/></g></g></svg>