<svg xmlns="http://www.w3.org/2000/svg" xmlns:xlink="http://www.w3.org/1999/xlink" width="100" height="100" viewBox="0 0 100 100"><defs><clipPath id="b"><rect width="100" height="100"/></clipPath></defs><g id="a" clip-path="url(#b)"><rect width="100" height="100" fill="#fff"/><g transform="translate(-1187.192 -1.191)"><path d="M1215.249,87.8v-1.04h43.891V87.8Zm0-11.276V75.479h43.891V76.52Zm21.945-12.4c-.235,0-.453-.011-.682-.032a26.492,26.492,0,1,1,1.405,0C1237.647,64.105,1237.428,64.116,1237.194,64.116Zm.52-1.021.747-.177c2.622-.619,5.119-3.164,7.032-7.165a30.765,30.765,0,0,0,1.655-4.385l.237-.783h-9.671Zm-10.475-11.726a30.963,30.963,0,0,0,1.655,4.384c1.913,4,4.41,6.546,7.032,7.165l.747.177V50.585H1227Zm21.141-.343a33.027,33.027,0,0,1-1.938,5.19,19.114,19.114,0,0,1-3.378,5.021l-1.495,1.554,2.087-.546a25.339,25.339,0,0,0,14.837-10.722l.611-.938h-10.6Zm-32.486.5a25.338,25.338,0,0,0,14.838,10.722l2.086.546-1.494-1.554a19.106,19.106,0,0,1-3.379-5.021,32.954,32.954,0,0,1-1.936-5.19l-.126-.441h-10.6Zm34.189-12.747a50.6,50.6,0,0,1-1.148,10.028l-.167.74H1259.7l.168-.332a25.168,25.168,0,0,0,2.709-10.4l.028-.634h-12.506Zm-12.369,10.768h9.931l.112-.467a48.793,48.793,0,0,0,1.285-10.276l.014-.62h-11.342ZM1225.346,38.8a48.759,48.759,0,0,0,1.284,10.276l.112.467h9.931V38.181h-11.341Zm-13.531.014a25.152,25.152,0,0,0,2.709,10.4l.168.332h10.928l-.167-.741a50.534,50.534,0,0,1-1.148-10.027l-.012-.6h-12.506Zm37.119-12.3a50.669,50.669,0,0,1,1.149,10.027l.012.6H1262.6l-.029-.634a25.156,25.156,0,0,0-2.744-10.4l-.169-.331h-10.891Zm-11.22,10.622h11.342l-.014-.62a48.973,48.973,0,0,0-1.285-10.276l-.112-.467h-9.931Zm-11.084-10.9a49,49,0,0,0-1.284,10.276l-.014.62h11.341V25.777h-9.931Zm-12.071-.136a25.164,25.164,0,0,0-2.744,10.4l-.029.634h12.507l.012-.6a50.643,50.643,0,0,1,1.149-10.027l.166-.741h-10.892ZM1243.1,14.119a18.9,18.9,0,0,1,3.344,4.951,33.1,33.1,0,0,1,1.938,5.225l.125.441h10.6l-.613-.939a25.358,25.358,0,0,0-14.8-10.685l-2.087-.55Zm-5.384,10.617h9.67l-.236-.782a30.928,30.928,0,0,0-1.655-4.421c-1.892-3.958-4.39-6.478-7.033-7.1l-.746-.173Zm-1.787-12.3c-2.643.618-5.14,3.138-7.033,7.1a31.247,31.247,0,0,0-1.655,4.42l-.237.783h9.671V12.264Zm-5.23.675a25.36,25.36,0,0,0-14.8,10.685l-.613.939h10.6l.125-.441a33.1,33.1,0,0,1,1.936-5.225,18.893,18.893,0,0,1,3.345-4.951l1.491-1.557Z"/><path d="M1199.84,101.25V1.25h75.32v100Zm.771-.77h73.778V2.02h-73.778Z"/></g></g></svg>