<svg xmlns="http://www.w3.org/2000/svg" width="16.926" height="16.178" viewBox="0 0 16.926 16.178">
  <g id="linkedin1" transform="translate(0 -0.5)">
    <path id="Path_1218" data-name="Path 1218" d="M6.488,159.684h3.628V170.6H6.488Zm0,0" transform="translate(-6.274 -153.922)" fill="#069"/>
    <path id="Path_1219" data-name="Path 1219" d="M2.053.5A1.891,1.891,0,1,0,2,4.272h.024A1.892,1.892,0,1,0,2.053.5Zm0,0" fill="#069"/>
    <path id="Path_1220" data-name="Path 1220" d="M183.871,151.934a3.6,3.6,0,0,0-3.27,1.8V152.19h-3.628v10.916H180.6v-6.1a2.488,2.488,0,0,1,.119-.885,1.986,1.986,0,0,1,1.862-1.327c1.313,0,1.838,1,1.838,2.468v5.84h3.628v-6.259C188.048,153.494,186.258,151.934,183.871,151.934Zm0,0" transform="translate(-171.123 -146.428)" fill="#069"/>
  </g>
</svg>
